<svg width="350" height="140" viewBox="0 0 350 140" fill="none" xmlns="http://www.w3.org/2000/svg">
<g clip-path="url(#clip0)">
<path d="M90.5776 78.9387L45.7412 58.1525V43.6025L90.5776 64.3887V78.9387Z" fill="#10409A"/>
<path d="M45.7412 99.7267L90.5776 78.9404V64.3901L45.7412 85.1765V99.7267Z" fill="#10409A"/>
<path d="M102.217 58.1982H45.7412V43.5542H107.391L102.217 58.1982Z" fill="#2F6FE7"/>
<path d="M90.5835 78.9614H34.4325L29.2578 64.3174H90.5835V78.9614Z" fill="#2F6FE7"/>
<path d="M102.217 99.724H45.7412V85.0801H107.391L102.217 99.724Z" fill="#2F6FE7"/>
</g>
<rect x="5.60352" y="2.97412" width="134.075" height="134.465" rx="67.0377" stroke="#2F6FE7" stroke-width="2"/>
<path d="M173.115 27.9658H196.663V30.2295H175.587V47.0045H193.981V49.2685H175.587V66.3767H197.225V68.6407H173.115V27.9658Z" fill="#666666"/>
<path d="M237.808 30.2288H223.869V68.6398H221.397V30.2288H207.439V27.9648H237.808V30.2288Z" fill="#666666"/>
<path d="M251.688 27.9658H254.159V46.9871H280.18V27.9658H282.652V68.6407H280.18V49.2508H254.159V68.6407H251.688V27.9658Z" fill="#666666"/>
<path d="M324.078 56.5144H303.845L299.128 68.6398H296.603L312.454 27.9648H315.47L331.496 68.6398H328.848L324.078 56.5144ZM323.184 54.2511L313.909 30.7028L304.739 54.2511H323.184Z" fill="#666666"/>
<path d="M193.158 111.988V114.244H173.13V77.5547H175.799V111.988H193.158Z" fill="#666666"/>
<path d="M232.671 112.041L232.619 114.244H210.647V77.5547H232.619V79.7585H213.317V94.5898H229.38V96.7422H213.317V112.041H232.671Z" fill="#666666"/>
<path d="M280.291 77.5547V114.244H279.048C278.823 114.244 278.637 114.205 278.49 114.128C278.343 114.05 278.201 113.916 278.063 113.726L254.252 81.8852C254.304 82.4036 254.33 82.8964 254.33 83.363V114.245H251.998V77.5547H253.319C253.561 77.5547 253.747 77.5849 253.877 77.6454C254.006 77.7063 254.149 77.8402 254.304 78.0471L278.063 109.811C278.011 109.292 277.985 108.799 277.985 108.332V77.5547H280.291V77.5547Z" fill="#666666"/>
<path d="M333.302 95.8865C333.302 98.7214 332.879 101.271 332.033 103.536C331.186 105.8 329.994 107.728 328.457 109.318C326.919 110.908 325.076 112.127 322.926 112.974C320.775 113.821 318.404 114.244 315.813 114.244H302.418V77.5547H315.813C318.404 77.5547 320.775 77.9786 322.926 78.8249C325.076 79.6723 326.919 80.8907 328.457 82.4812C329.994 84.0717 331.186 85.9987 332.033 88.2634C332.879 90.5281 333.302 93.0689 333.302 95.8865ZM330.556 95.8865C330.556 93.3287 330.201 91.0466 329.493 89.0409C328.784 87.036 327.783 85.3419 326.488 83.959C325.192 82.5761 323.638 81.5218 321.824 80.7954C320.01 80.0694 318.007 79.7064 315.812 79.7064H305.086V112.092H315.812C318.006 112.092 320.01 111.729 321.824 111.003C323.638 110.277 325.192 109.223 326.488 107.839C327.783 106.456 328.784 104.763 329.493 102.757C330.201 100.753 330.556 98.4624 330.556 95.8865Z" fill="#666666"/>
<defs>
<clipPath id="clip0">
</clipPath>
</defs>
</svg>
