<svg width="330" height="137" viewBox="0 0 330 137" fill="none" xmlns="http://www.w3.org/2000/svg">
<path d="M169 25.001H192.548V27.2646H171.472V44.0397H189.865V46.3037H171.472V63.4118H193.109V65.6758H169V25.001Z" fill="white"/>
<path d="M233.693 27.264H219.754V65.6749H217.282V27.264H203.324V25H233.693V27.264Z" fill="white"/>
<path d="M247.572 25.001H250.044V44.0223H276.065V25.001H278.537V65.6758H276.065V46.2859H250.044V65.6758H247.572V25.001Z" fill="white"/>
<path d="M319.962 53.5496H299.728L295.012 65.6749H292.486L308.337 25H311.354L327.379 65.6749H324.732L319.962 53.5496ZM319.068 51.2863L309.793 27.7379L300.622 51.2863H319.068Z" fill="white"/>
<path d="M189.044 109.024V111.28H169.016V74.5898H171.684V109.024H189.044Z" fill="white"/>
<path d="M228.555 109.076L228.503 111.28H206.531V74.5898H228.503V76.7937H209.2V91.625H225.264V93.7774H209.2V109.076H228.555Z" fill="white"/>
<path d="M276.176 74.5898V111.279H274.932C274.708 111.279 274.521 111.241 274.375 111.163C274.228 111.085 274.085 110.952 273.948 110.761L250.137 78.9203C250.189 79.4388 250.215 79.9315 250.215 80.3982V111.28H247.883V74.5898H249.204C249.446 74.5898 249.632 74.6201 249.762 74.6806C249.891 74.7415 250.034 74.8753 250.189 75.0822L273.948 106.846C273.896 106.327 273.87 105.835 273.87 105.368V74.5898H276.176Z" fill="white"/>
<path d="M329.187 92.9216C329.187 95.7566 328.763 98.3064 327.918 100.571C327.071 102.835 325.879 104.763 324.342 106.353C322.804 107.943 320.961 109.162 318.81 110.009C316.66 110.856 314.289 111.28 311.698 111.28H298.303V74.5898H311.698C314.289 74.5898 316.66 75.0137 318.81 75.8601C320.96 76.7075 322.804 77.9259 324.342 79.5163C325.879 81.1068 327.071 83.0339 327.918 85.2986C328.763 87.5633 329.187 90.1041 329.187 92.9216ZM326.44 92.9216C326.44 90.3638 326.086 88.0817 325.378 86.0761C324.669 84.0711 323.668 82.377 322.373 80.9941C321.077 79.6113 319.523 78.557 317.708 77.8306C315.895 77.1046 313.891 76.7415 311.697 76.7415H300.971V109.127H311.697C313.891 109.127 315.895 108.764 317.708 108.038C319.523 107.312 321.077 106.258 322.373 104.875C323.668 103.492 324.669 101.798 325.378 99.7926C326.086 97.788 326.44 95.4976 326.44 92.9216Z" fill="white"/>
<path d="M90.3208 75.384L45.4844 54.5979V40.0479L90.3208 60.834V75.384Z" fill="#D2D5D8"/>
<path d="M45.4844 96.1725L90.3208 75.3862V60.8359L45.4844 81.6223V96.1725Z" fill="#D2D5D8"/>
<path d="M101.96 54.644H45.4844V40H107.135L101.96 54.644Z" fill="white"/>
<path d="M90.3257 75.4077H34.1747L29 60.7637H90.3257V75.4077Z" fill="white"/>
<path d="M101.96 96.1703H45.4844V81.5264H107.135L101.96 96.1703Z" fill="white"/>
<path d="M135.075 68.0377C135.075 31.0138 105.061 1 68.0375 1C31.0137 1 1 31.0138 1 68.0377V68.4273C1 105.451 31.0137 135.465 68.0375 135.465C105.061 135.465 135.075 105.451 135.075 68.4273V68.0377Z" stroke="white" stroke-width="2"/>
</svg>
