<?xml version="1.0" encoding="utf-8"?>
<!-- Generator: Adobe Illustrator 16.0.0, SVG Export Plug-In . SVG Version: 6.00 Build 0)  -->
<!DOCTYPE svg PUBLIC "-//W3C//DTD SVG 1.1//EN" "http://www.w3.org/Graphics/SVG/1.1/DTD/svg11.dtd">
<svg version="1.1" id="Layer_1" xmlns="http://www.w3.org/2000/svg" xmlns:xlink="http://www.w3.org/1999/xlink" x="0px" y="0px"
	 width="1007.319px" height="400px" viewBox="0 0 1007.319 400" enable-background="new 0 0 1007.319 400" xml:space="preserve">
<polygon fill="#FFFFFF" points="498.235,80.426 566.008,80.426 566.008,86.936 505.35,86.936 505.35,135.179 558.287,135.179 
	558.287,141.69 505.35,141.69 505.35,190.891 567.623,190.891 567.623,197.402 498.235,197.402 "/>
<polygon fill="#FFFFFF" points="684.423,86.936 644.307,86.936 644.307,197.401 637.191,197.401 637.191,86.936 597.021,86.936 
	597.021,80.425 684.423,80.425 "/>
<polygon fill="#FFFFFF" points="724.371,80.426 731.485,80.426 731.485,135.129 806.374,135.129 806.374,80.426 813.488,80.426 
	813.488,197.402 806.374,197.402 806.374,141.639 731.485,141.639 731.485,197.402 724.371,197.402 "/>
<path fill="#FFFFFF" d="M932.714,162.53h-58.234l-13.575,34.871h-7.268l45.62-116.976h8.681l46.123,116.976h-7.62L932.714,162.53z
	 M930.14,156.021l-26.693-67.722l-26.394,67.722H930.14z"/>
<polygon fill="#D2D5D8" points="325.149,233.897 119.149,138.795 119.149,72.225 325.149,167.327 "/>
<polygon fill="#D2D5D8" points="119.149,329 325.149,233.897 325.149,167.326 119.149,262.429 "/>
<polygon fill="#FFFFFF" points="378.624,139 119.148,139 119.148,72 402.399,72 "/>
<polygon fill="#FFFFFF" points="325.149,234 67.164,234 43.389,167 325.149,167 "/>
<polygon fill="#FFFFFF" points="378.624,329 119.148,329 119.148,262 402.399,262 "/>
<polygon fill="#FFFFFF" points="555.922,322.066 555.922,328.554 498.279,328.554 498.279,223.039 505.96,223.039 505.96,322.066 
	"/>
<polygon fill="#FFFFFF" points="669.64,322.216 669.49,328.554 606.255,328.554 606.255,223.039 669.49,223.039 669.49,229.377 
	613.937,229.377 613.937,272.03 660.168,272.03 660.168,278.22 613.937,278.22 613.937,322.216 "/>
<g>
	<defs>
		<rect id="SVGID_1_" width="1007.319" height="400"/>
	</defs>
	<clipPath id="SVGID_2_">
		<use xlink:href="#SVGID_1_"  overflow="visible"/>
	</clipPath>
	<path clip-path="url(#SVGID_2_)" fill="#FFFFFF" d="M806.693,223.039v105.515h-3.578c-0.647,0-1.183-0.112-1.604-0.336
		c-0.423-0.224-0.834-0.607-1.23-1.155l-68.528-91.57c0.148,1.491,0.223,2.908,0.223,4.25v88.812h-6.711V223.039h3.803
		c0.696,0,1.23,0.087,1.604,0.261c0.373,0.175,0.783,0.56,1.229,1.155l68.38,91.348c-0.149-1.491-0.224-2.908-0.224-4.251v-88.513
		H806.693z"/>
	<path clip-path="url(#SVGID_2_)" fill="#FFFFFF" d="M959.26,275.759c0,8.153-1.218,15.486-3.652,21.998
		c-2.438,6.513-5.867,12.056-10.291,16.629c-4.426,4.574-9.731,8.079-15.92,10.514c-6.189,2.437-13.014,3.654-20.471,3.654h-38.551
		V223.039h38.551c7.457,0,14.281,1.219,20.471,3.653c6.188,2.437,11.494,5.941,15.92,10.515c4.424,4.574,7.854,10.116,10.291,16.629
		C958.042,260.349,959.26,267.656,959.26,275.759 M951.356,275.759c0-7.356-1.021-13.919-3.058-19.687
		c-2.039-5.766-4.922-10.638-8.649-14.615c-3.729-3.977-8.202-7.009-13.424-9.098c-5.22-2.088-10.985-3.132-17.3-3.132h-30.871
		v93.137h30.871c6.314,0,12.08-1.044,17.3-3.132c5.222-2.088,9.694-5.119,13.424-9.098c3.728-3.977,6.61-8.848,8.649-14.615
		C950.336,289.754,951.356,283.167,951.356,275.759"/>
</g>
</svg>
