<svg width="350" height="139" viewBox="0 0 350 139" fill="none" xmlns="http://www.w3.org/2000/svg">
<path d="M173.115 27.874H196.663V30.1302H175.587V46.8501H193.981V49.1067H175.587V66.1586H197.225V68.4152H173.115V27.874Z" fill="white"/>
<path d="M237.808 30.1301H223.869V68.4147H221.397V30.1301H207.439V27.8735H237.808V30.1301Z" fill="white"/>
<path d="M251.688 27.874H254.159V46.8328H280.18V27.874H282.652V68.4152H280.18V49.089H254.159V68.4152H251.688V27.874Z" fill="white"/>
<path d="M324.077 56.3293H303.844L299.127 68.4147H296.602L312.453 27.8735H315.469L331.495 68.4147H328.847L324.077 56.3293ZM323.183 54.0734L313.908 30.6025L304.738 54.0734H323.183Z" fill="white"/>
<path d="M193.159 111.621V113.869H173.131V77.3003H175.8V111.621H193.159Z" fill="white"/>
<path d="M232.671 111.673L232.619 113.869H210.647V77.3003H232.619V79.4969H213.317V94.2795H229.38V96.4248H213.317V111.673H232.671Z" fill="white"/>
<path d="M280.291 77.3003V113.869H279.048C278.823 113.869 278.637 113.831 278.49 113.753C278.343 113.675 278.201 113.543 278.063 113.353L254.252 81.6166C254.304 82.1333 254.33 82.6244 254.33 83.0895V113.87H251.998V77.3003H253.319C253.561 77.3003 253.747 77.3304 253.877 77.3908C254.006 77.4514 254.149 77.5848 254.304 77.791L278.063 109.45C278.011 108.933 277.985 108.442 277.985 107.977V77.3003H280.291V77.3003Z" fill="white"/>
<path d="M333.302 95.5718C333.302 98.3975 332.879 100.939 332.033 103.196C331.186 105.453 329.994 107.374 328.457 108.959C326.919 110.544 325.076 111.759 322.926 112.603C320.775 113.448 318.404 113.869 315.813 113.869H302.418V77.3003H315.813C318.404 77.3003 320.775 77.7228 322.926 78.5663C325.076 79.4109 326.919 80.6254 328.457 82.2106C329.994 83.7958 331.186 85.7166 332.033 87.9738C332.879 90.2311 333.302 92.7635 333.302 95.5718ZM330.555 95.5718C330.555 93.0224 330.201 90.7478 329.493 88.7488C328.784 86.7504 327.783 85.0619 326.488 83.6836C325.192 82.3052 323.638 81.2544 321.823 80.5304C320.01 79.8067 318.007 79.4449 315.812 79.4449H305.086V111.724H315.812C318.006 111.724 320.01 111.362 321.823 110.639C323.638 109.915 325.192 108.864 326.488 107.485C327.783 106.107 328.784 104.419 329.493 102.42C330.201 100.422 330.555 98.1393 330.555 95.5718Z" fill="white"/>
<g clip-path="url(#clip0)">
<path d="M90.5776 78.68L45.7412 57.9622V43.46L90.5776 64.1778V78.68Z" fill="#D2D5D8"/>
<path d="M45.7412 99.3992L90.5776 78.6811V64.1787L45.7412 84.8968V99.3992Z" fill="#D2D5D8"/>
<path d="M102.217 58.007H45.7412V43.4111H107.391L102.217 58.007Z" fill="white"/>
<path d="M90.5825 78.7023H34.4315L29.2568 64.1064H90.5825V78.7023Z" fill="white"/>
<path d="M102.217 99.3976H45.7412V84.8018H107.391L102.217 99.3976Z" fill="white"/>
</g>
<rect x="5.60352" y="2.96094" width="134.075" height="134.029" rx="67.0147" stroke="white" stroke-width="2"/>
<defs>
<clipPath id="clip0">
</clipPath>
</defs>
</svg>
